<svg width="35" height="22" viewBox="0 0 35 22" fill="none" xmlns="http://www.w3.org/2000/svg">
<rect width="35" height="22" rx="11" fill="#F3F3F7"/>
<path d="M10.3087 15.096C9.86869 15.096 9.42469 15.08 8.97669 15.048C8.52869 15.024 8.13669 14.968 7.80069 14.88V6.804C7.97669 6.772 8.16469 6.744 8.36469 6.72C8.56469 6.688 8.76869 6.664 8.97669 6.648C9.18469 6.632 9.38869 6.62 9.58869 6.612C9.79669 6.604 9.99269 6.6 10.1767 6.6C10.6807 6.6 11.1487 6.64 11.5807 6.72C12.0127 6.792 12.3847 6.916 12.6967 7.092C13.0167 7.268 13.2647 7.5 13.4407 7.788C13.6167 8.076 13.7047 8.432 13.7047 8.856C13.7047 9.248 13.6087 9.584 13.4167 9.864C13.2327 10.144 12.9727 10.368 12.6367 10.536C13.1407 10.704 13.5127 10.952 13.7527 11.28C13.9927 11.608 14.1127 12.024 14.1127 12.528C14.1127 13.384 13.8007 14.028 13.1767 14.46C12.5527 14.884 11.5967 15.096 10.3087 15.096ZM9.28869 11.256V13.788C9.45669 13.804 9.63669 13.816 9.82869 13.824C10.0207 13.832 10.1967 13.836 10.3567 13.836C10.6687 13.836 10.9567 13.816 11.2207 13.776C11.4927 13.736 11.7247 13.668 11.9167 13.572C12.1167 13.468 12.2727 13.332 12.3847 13.164C12.5047 12.996 12.5647 12.78 12.5647 12.516C12.5647 12.044 12.3927 11.716 12.0487 11.532C11.7047 11.348 11.2287 11.256 10.6207 11.256H9.28869ZM9.28869 10.068H10.3567C10.9327 10.068 11.3847 9.988 11.7127 9.828C12.0407 9.66 12.2047 9.364 12.2047 8.94C12.2047 8.54 12.0327 8.256 11.6887 8.088C11.3527 7.92 10.9127 7.836 10.3687 7.836C10.1367 7.836 9.92869 7.84 9.74469 7.848C9.56869 7.856 9.41669 7.868 9.28869 7.884V10.068ZM21.4834 6.684V7.992H18.9274V15H17.4034V7.992H14.8474V6.684H21.4834ZM26.0397 15.18C25.4157 15.18 24.8557 15.084 24.3597 14.892C23.8637 14.7 23.4437 14.42 23.0997 14.052C22.7557 13.676 22.4917 13.22 22.3077 12.684C22.1237 12.148 22.0317 11.532 22.0317 10.836C22.0317 10.14 22.1357 9.524 22.3437 8.988C22.5597 8.452 22.8517 8 23.2197 7.632C23.5877 7.256 24.0197 6.972 24.5157 6.78C25.0117 6.588 25.5437 6.492 26.1117 6.492C26.4557 6.492 26.7677 6.52 27.0477 6.576C27.3277 6.624 27.5717 6.68 27.7797 6.744C27.9877 6.808 28.1597 6.876 28.2957 6.948C28.4317 7.02 28.5277 7.072 28.5837 7.104L28.1397 8.34C27.9477 8.22 27.6717 8.108 27.3117 8.004C26.9597 7.892 26.5757 7.836 26.1597 7.836C25.7997 7.836 25.4637 7.9 25.1517 8.028C24.8397 8.148 24.5677 8.332 24.3357 8.58C24.1117 8.828 23.9357 9.14 23.8077 9.516C23.6797 9.892 23.6157 10.328 23.6157 10.824C23.6157 11.264 23.6637 11.668 23.7597 12.036C23.8637 12.404 24.0197 12.724 24.2277 12.996C24.4357 13.26 24.6997 13.468 25.0197 13.62C25.3397 13.764 25.7237 13.836 26.1717 13.836C26.7077 13.836 27.1437 13.784 27.4797 13.68C27.8157 13.568 28.0757 13.464 28.2597 13.368L28.6677 14.604C28.5717 14.668 28.4397 14.732 28.2717 14.796C28.1117 14.86 27.9197 14.924 27.6957 14.988C27.4717 15.044 27.2197 15.088 26.9397 15.12C26.6597 15.16 26.3597 15.18 26.0397 15.18Z" fill="#797E82"/>
</svg>
