<svg width="40" height="40" viewBox="0 0 40 40" fill="none" xmlns="http://www.w3.org/2000/svg">
<rect width="40" height="40" rx="20" fill="#F3F3F7"/>
<g clip-path="url(#clip0_2559_598)">
<path fill-rule="evenodd" clip-rule="evenodd" d="M27.9997 20C27.9997 24.4183 24.418 28.0001 19.9997 28.0001C15.5814 28.0001 11.9996 24.4183 11.9996 20C11.9996 15.5817 15.5814 12 19.9997 12C24.418 12 27.9997 15.5817 27.9997 20ZM18.3596 15.57V16.2807C18.171 16.3122 17.9978 16.3535 17.8399 16.4046C17.7009 16.451 17.5928 16.5127 17.5155 16.59C17.4383 16.6672 17.3997 16.7792 17.3997 16.9259V22.5906C17.3997 22.9227 17.585 23.1506 17.9557 23.2741C18.0818 23.3139 18.2164 23.348 18.3596 23.3764V23.9558C18.3596 24.2747 18.4054 24.4951 18.4968 24.617C18.5939 24.739 18.7482 24.8 18.9596 24.8C19.0256 24.8 19.1038 24.791 19.1823 24.7758C19.3416 24.7448 19.4396 24.5955 19.4396 24.4332V23.5174C19.6091 23.5251 19.767 23.529 19.9135 23.529C19.9972 23.529 20.0792 23.5278 20.1596 23.5253V23.9558C20.1596 24.2747 20.2054 24.4951 20.2968 24.617C20.394 24.739 20.5482 24.8 20.7596 24.8C20.8256 24.8 20.9038 24.791 20.9824 24.7758C21.1417 24.7448 21.2397 24.5955 21.2397 24.4332V23.3984C21.631 23.3096 21.9612 23.1755 22.2303 22.9961C22.7632 22.6408 23.0297 22.0964 23.0297 21.3627C23.0297 20.9611 22.9177 20.6136 22.6937 20.3201C22.4697 20.0267 22.1338 19.8065 21.6859 19.6598C22.0489 19.5053 22.3191 19.3007 22.4968 19.0459C22.6821 18.791 22.7748 18.4898 22.7748 18.1422C22.7748 17.4704 22.5199 16.9761 22.0102 16.6595C21.7922 16.5207 21.5354 16.4117 21.2397 16.3323V15.7985C21.2397 15.5724 21.1911 15.4161 21.094 15.3296C21.0025 15.2432 20.8511 15.1999 20.6396 15.1999C20.5785 15.1999 20.5161 15.2036 20.4536 15.2108C20.2769 15.2309 20.1596 15.3921 20.1596 15.57V16.1794C20.0573 16.1751 19.952 16.1729 19.844 16.1729C19.7072 16.1729 19.5724 16.1754 19.4396 16.1805V15.7985C19.4396 15.5724 19.3911 15.4161 19.2939 15.3296C19.2025 15.2432 19.0511 15.1999 18.8396 15.1999C18.7785 15.1999 18.7161 15.2036 18.6536 15.2108C18.4769 15.2309 18.3596 15.3921 18.3596 15.57ZM21.5005 21.3048C21.5005 20.9959 21.3885 20.7526 21.1646 20.575C20.9483 20.3973 20.6317 20.3085 20.2146 20.3085H18.8593V22.2431C19.006 22.2817 19.1798 22.3088 19.3806 22.3242C19.5891 22.3396 19.7938 22.3474 19.9946 22.3474C20.4656 22.3474 20.8325 22.2663 21.095 22.1041C21.3654 21.9342 21.5005 21.6677 21.5005 21.3048ZM18.8593 19.208H20.0293C20.4463 19.208 20.7552 19.1231 20.956 18.9532C21.1646 18.7833 21.2688 18.5477 21.2688 18.2465C21.2688 17.6364 20.7977 17.3314 19.8556 17.3314C19.6625 17.3314 19.4771 17.3391 19.2995 17.3545C19.1296 17.37 18.9829 17.3893 18.8593 17.4124V19.208Z" fill="#171717"/>
</g>
<defs>
<clipPath id="clip0_2559_598">
<rect width="16" height="16" fill="white" transform="translate(12 12)"/>
</clipPath>
</defs>
</svg>
