<svg width="16" height="16" viewBox="0 0 16 16" fill="none" xmlns="http://www.w3.org/2000/svg">
<path d="M1.04711 2.25907C1.08374 1.65594 1.47619 1.18883 2.07534 1.11063C2.53787 1.05026 3.20634 1 4.15002 1C5.0937 1 5.76216 1.05026 6.22469 1.11063C6.82386 1.18883 7.21628 1.65594 7.25293 2.25907C7.27914 2.69043 7.30004 3.3007 7.30004 4.15002C7.30004 4.99933 7.27914 5.6096 7.25293 6.04098C7.21628 6.6441 6.82386 7.11121 6.22469 7.1894C5.76216 7.24978 5.0937 7.30004 4.15002 7.30004C3.20634 7.30004 2.53787 7.24978 2.07534 7.1894C1.47619 7.11121 1.08374 6.6441 1.04711 6.04098C1.02091 5.6096 1 4.99933 1 4.15002C1 3.3007 1.02091 2.69043 1.04711 2.25907Z" fill="#171717"/>
<path d="M1.04705 13.741C1.08368 14.3441 1.47613 14.8112 2.07528 14.8894C2.53781 14.9498 3.20628 15 4.14996 15C5.09363 15 5.7621 14.9498 6.22463 14.8894C6.8238 14.8112 7.21622 14.3441 7.25287 13.741C7.27908 13.3096 7.29998 12.6993 7.29998 11.85C7.29998 11.0007 7.27908 10.3904 7.25287 9.95904C7.21622 9.35592 6.8238 8.88881 6.22463 8.81062C5.7621 8.75024 5.09363 8.69998 4.14996 8.69998C3.20628 8.69998 2.53781 8.75024 2.07528 8.81062C1.47613 8.88881 1.08368 9.35592 1.04705 9.95904C1.02084 10.3904 0.999939 11.0007 0.999939 11.85C0.999939 12.6993 1.02084 13.3096 1.04705 13.741Z" fill="#171717"/>
<path d="M13.7416 1.04711C14.3447 1.08374 14.8118 1.47619 14.89 2.07534C14.9504 2.53787 15.0007 3.20634 15.0007 4.15002C15.0007 5.0937 14.9504 5.76216 14.89 6.22469C14.8118 6.82386 14.3447 7.21628 13.7416 7.25293C13.3102 7.27914 12.7 7.30004 11.8506 7.30004C11.0013 7.30004 10.3911 7.27914 9.95969 7.25293C9.35656 7.21628 8.88945 6.82386 8.81126 6.22469C8.75088 5.76216 8.70062 5.0937 8.70062 4.15002C8.70062 3.20634 8.75088 2.53787 8.81126 2.07534C8.88945 1.47618 9.35656 1.08374 9.95969 1.04711C10.3911 1.02091 11.0013 1 11.8506 1C12.7 1 13.3102 1.02091 13.7416 1.04711Z" fill="#171717"/>
<path d="M13.7416 14.9529C14.3447 14.9163 14.8118 14.5238 14.89 13.9247C14.9504 13.4621 15.0007 12.7937 15.0007 11.85C15.0007 10.9063 14.9504 10.2379 14.89 9.77533C14.8118 9.17616 14.3447 8.78374 13.7416 8.74709C13.3102 8.72088 12.7 8.69998 11.8506 8.69998C11.0013 8.69998 10.3911 8.72088 9.95969 8.74709C9.35656 8.78374 8.88945 9.17616 8.81126 9.77533C8.75088 10.2379 8.70062 10.9063 8.70062 11.85C8.70062 12.7937 8.75088 13.4621 8.81126 13.9247C8.88945 14.5238 9.35656 14.9163 9.95969 14.9529C10.3911 14.9791 11.0013 15 11.8506 15C12.7 15 13.3102 14.9791 13.7416 14.9529Z" fill="#171717"/>
</svg>
