<svg width="40" height="40" viewBox="0 0 40 40" fill="none" xmlns="http://www.w3.org/2000/svg">
<rect width="40" height="40" rx="20" fill="#F3F3F7"/>
<g clip-path="url(#clip0_2559_571)">
<path fill-rule="evenodd" clip-rule="evenodd" d="M19.9997 28.0001C24.418 28.0001 27.9997 24.4184 27.9997 20C27.9997 15.5817 24.418 12 19.9997 12C15.5814 12 11.9996 15.5817 11.9996 20C11.9996 24.4184 15.5814 28.0001 19.9997 28.0001ZM20.71 22.3105C20.5052 22.4812 20.1724 22.5665 19.7116 22.5665C19.2593 22.5665 18.8583 22.494 18.5084 22.3489C18.3633 22.2852 18.2292 22.2186 18.1061 22.149C17.8165 21.9853 17.4317 21.9244 17.2284 22.1878C17.1101 22.3408 17.0364 22.5231 17.0364 22.7329C17.0364 23.0913 17.2284 23.39 17.6124 23.6289C18.0049 23.8593 18.5127 24.0087 19.1356 24.0769V24.3329C19.1356 24.6231 19.2039 24.8236 19.3404 24.9345C19.4855 25.0455 19.7159 25.1009 20.0316 25.1009C20.0902 25.1009 20.1495 25.099 20.2091 25.0952C20.5297 25.0747 20.7484 24.786 20.7484 24.4648V24.0129C21.4737 23.8764 22.0241 23.6076 22.3996 23.2065C22.7751 22.7969 22.9628 22.2977 22.9628 21.7089C22.9628 21.0433 22.7537 20.5143 22.3356 20.1217C21.926 19.7292 21.3372 19.4135 20.5692 19.1745L19.8524 18.9569C19.5623 18.8631 19.3447 18.7607 19.1996 18.6497C19.0631 18.5388 18.9948 18.3937 18.9948 18.2145C18.9948 17.9927 19.0972 17.8135 19.302 17.6769C19.5153 17.5318 19.8353 17.4593 20.262 17.4593C20.646 17.4593 21.0001 17.5105 21.3244 17.6129C21.4252 17.6413 21.5198 17.6717 21.6081 17.7041C21.9291 17.8217 22.3376 17.8384 22.4925 17.5337C22.5553 17.4103 22.5916 17.274 22.5916 17.1265C22.5916 16.8022 22.4209 16.542 22.0796 16.3457C21.7383 16.1409 21.2945 16.0086 20.7484 15.9489V15.6673C20.7484 15.3772 20.6759 15.1766 20.5308 15.0657C20.3943 14.9548 20.1681 14.8993 19.8524 14.8993C19.7939 14.8993 19.7345 14.9012 19.6749 14.9051C19.3544 14.9256 19.1356 15.2142 19.1356 15.5354V16.0001C18.47 16.1281 17.958 16.3841 17.5996 16.7681C17.2412 17.1521 17.062 17.6343 17.062 18.2145C17.062 18.5559 17.1175 18.8503 17.2284 19.0977C17.3393 19.3452 17.4929 19.5585 17.6892 19.7377C17.8855 19.9169 18.1244 20.0705 18.406 20.1985C18.6876 20.3265 19.0033 20.446 19.3532 20.5569L20.0572 20.7873C20.3815 20.8897 20.6247 21.0092 20.7868 21.1457C20.9489 21.2823 21.03 21.4615 21.03 21.6833C21.03 21.9308 20.9233 22.1399 20.71 22.3105Z" fill="#171717"/>
</g>
<defs>
<clipPath id="clip0_2559_571">
<rect width="16" height="16" fill="white" transform="translate(12 12)"/>
</clipPath>
</defs>
</svg>
