<svg width="55" height="18" viewBox="0 0 55 18" fill="none" xmlns="http://www.w3.org/2000/svg">
<g clip-path="url(#clip0_2559_627)">
<g clip-path="url(#clip1_2559_627)">
<path d="M10.6632 9.94466L10.5703 5.37564C10.568 5.25385 10.5416 5.13275 10.4928 5.01927C10.4439 4.90579 10.3736 4.80216 10.2857 4.71431C10.1979 4.62645 10.0942 4.55609 9.98075 4.50726C9.86727 4.45842 9.74617 4.43207 9.62438 4.4297L5.05537 4.33682C4.80921 4.33186 4.5751 4.4249 4.40455 4.59545C4.23399 4.76601 4.14096 5.00012 4.14592 5.24628C4.15087 5.49244 4.25341 5.73048 4.43098 5.90805C4.60855 6.08561 4.84659 6.18815 5.09275 6.19311L7.42142 6.24L1.68783 11.9736C1.51733 12.1441 1.42433 12.3781 1.42928 12.6242C1.43424 12.8703 1.53675 13.1083 1.71425 13.2858C1.89176 13.4633 2.12973 13.5658 2.37581 13.5707C2.62189 13.5757 2.85593 13.4827 3.02643 13.3122L8.76002 7.5786L8.80691 9.90727C8.81187 10.1534 8.91441 10.3915 9.09198 10.569C9.26954 10.7466 9.50759 10.8492 9.75375 10.8541C9.99991 10.8591 10.234 10.766 10.4046 10.5955C10.5751 10.4249 10.6682 10.1908 10.6632 9.94466Z" fill="#059669"/>
</g>
<path d="M22.1957 9.142C22.1957 10.7753 21.897 12.0307 21.2997 12.908C20.7024 13.776 19.8764 14.21 18.8217 14.21C17.767 14.21 16.941 13.776 16.3437 12.908C15.7464 12.0307 15.4477 10.7753 15.4477 9.142C15.4477 8.33 15.5224 7.61133 15.6717 6.986C15.8304 6.35133 16.0544 5.81933 16.3437 5.39C16.6424 4.96067 16.997 4.634 17.4077 4.41C17.8277 4.186 18.299 4.074 18.8217 4.074C19.8764 4.074 20.7024 4.51267 21.2997 5.39C21.897 6.258 22.1957 7.50867 22.1957 9.142ZM20.4457 9.142C20.4457 8.638 20.4177 8.16667 20.3617 7.728C20.3057 7.28933 20.2124 6.91133 20.0817 6.594C19.9604 6.26733 19.797 6.01067 19.5917 5.824C19.3864 5.63733 19.1297 5.544 18.8217 5.544C18.5137 5.544 18.2524 5.63733 18.0377 5.824C17.8324 6.01067 17.6644 6.26733 17.5337 6.594C17.4124 6.91133 17.3237 7.28933 17.2677 7.728C17.221 8.16667 17.1977 8.638 17.1977 9.142C17.1977 9.646 17.221 10.1173 17.2677 10.556C17.3237 10.9947 17.4124 11.3773 17.5337 11.704C17.6644 12.0213 17.8324 12.2733 18.0377 12.46C18.2524 12.6467 18.5137 12.74 18.8217 12.74C19.1297 12.74 19.3864 12.6467 19.5917 12.46C19.797 12.2733 19.9604 12.0213 20.0817 11.704C20.2124 11.3773 20.3057 10.9947 20.3617 10.556C20.4177 10.1173 20.4457 9.646 20.4457 9.142ZM25.7847 13.076C25.7847 13.4027 25.6727 13.6687 25.4487 13.874C25.2341 14.0793 24.9727 14.182 24.6647 14.182C24.3474 14.182 24.0814 14.0793 23.8667 13.874C23.6521 13.6687 23.5447 13.4027 23.5447 13.076C23.5447 12.7493 23.6521 12.4833 23.8667 12.278C24.0814 12.0633 24.3474 11.956 24.6647 11.956C24.9727 11.956 25.2341 12.0633 25.4487 12.278C25.6727 12.4833 25.7847 12.7493 25.7847 13.076ZM33.8715 9.142C33.8715 10.7753 33.5728 12.0307 32.9755 12.908C32.3782 13.776 31.5522 14.21 30.4975 14.21C29.4428 14.21 28.6168 13.776 28.0195 12.908C27.4222 12.0307 27.1235 10.7753 27.1235 9.142C27.1235 8.33 27.1982 7.61133 27.3475 6.986C27.5062 6.35133 27.7302 5.81933 28.0195 5.39C28.3182 4.96067 28.6728 4.634 29.0835 4.41C29.5035 4.186 29.9748 4.074 30.4975 4.074C31.5522 4.074 32.3782 4.51267 32.9755 5.39C33.5728 6.258 33.8715 7.50867 33.8715 9.142ZM32.1215 9.142C32.1215 8.638 32.0935 8.16667 32.0375 7.728C31.9815 7.28933 31.8882 6.91133 31.7575 6.594C31.6362 6.26733 31.4728 6.01067 31.2675 5.824C31.0622 5.63733 30.8055 5.544 30.4975 5.544C30.1895 5.544 29.9282 5.63733 29.7135 5.824C29.5082 6.01067 29.3402 6.26733 29.2095 6.594C29.0882 6.91133 28.9995 7.28933 28.9435 7.728C28.8968 8.16667 28.8735 8.638 28.8735 9.142C28.8735 9.646 28.8968 10.1173 28.9435 10.556C28.9995 10.9947 29.0882 11.3773 29.2095 11.704C29.3402 12.0213 29.5082 12.2733 29.7135 12.46C29.9282 12.6467 30.1895 12.74 30.4975 12.74C30.8055 12.74 31.0622 12.6467 31.2675 12.46C31.4728 12.2733 31.6362 12.0213 31.7575 11.704C31.8882 11.3773 31.9815 10.9947 32.0375 10.556C32.0935 10.1173 32.1215 9.646 32.1215 9.142ZM39.1965 6.384C38.9725 6.65467 38.7392 6.944 38.4965 7.252C38.2632 7.56 38.0345 7.882 37.8105 8.218C37.5865 8.554 37.3718 8.89933 37.1665 9.254C36.9612 9.59933 36.7745 9.94467 36.6065 10.29H39.1965V6.384ZM40.8485 4.298V10.29H41.9405V11.676H40.8485V14H39.1965V11.676H34.9405V10.472C35.1272 10.0613 35.3745 9.59 35.6825 9.058C35.9998 8.526 36.3498 7.98 36.7325 7.42C37.1152 6.86 37.5212 6.30933 37.9505 5.768C38.3798 5.22667 38.8092 4.73667 39.2385 4.298H40.8485ZM47.7975 6.734C47.7975 7.58333 47.5782 8.23667 47.1395 8.694C46.7102 9.15133 46.1455 9.38 45.4455 9.38C45.1002 9.38 44.7829 9.324 44.4935 9.212C44.2042 9.09067 43.9569 8.918 43.7515 8.694C43.5462 8.47 43.3829 8.19467 43.2615 7.868C43.1495 7.532 43.0935 7.154 43.0935 6.734C43.0935 5.87533 43.3082 5.222 43.7375 4.774C44.1762 4.31667 44.7455 4.088 45.4455 4.088C46.1455 4.088 46.7102 4.31667 47.1395 4.774C47.5782 5.222 47.7975 5.87533 47.7975 6.734ZM46.4675 6.734C46.4675 6.23933 46.3742 5.87067 46.1875 5.628C46.0102 5.376 45.7629 5.25 45.4455 5.25C45.1282 5.25 44.8809 5.376 44.7035 5.628C44.5262 5.87067 44.4375 6.23933 44.4375 6.734C44.4375 7.22867 44.5262 7.602 44.7035 7.854C44.8809 8.09667 45.1282 8.218 45.4455 8.218C45.7629 8.218 46.0102 8.09667 46.1875 7.854C46.3742 7.602 46.4675 7.22867 46.4675 6.734ZM50.6395 4.298H52.2495L46.7755 14H45.1655L50.6395 4.298ZM54.3355 11.578C54.3355 12.4273 54.1162 13.0807 53.6775 13.538C53.2482 13.9953 52.6835 14.224 51.9835 14.224C51.6382 14.224 51.3209 14.1633 51.0315 14.042C50.7422 13.93 50.4949 13.762 50.2895 13.538C50.0842 13.314 49.9209 13.0387 49.7995 12.712C49.6875 12.376 49.6315 11.998 49.6315 11.578C49.6315 10.7193 49.8462 10.066 50.2755 9.618C50.7142 9.16067 51.2835 8.932 51.9835 8.932C52.6835 8.932 53.2482 9.16067 53.6775 9.618C54.1162 10.066 54.3355 10.7193 54.3355 11.578ZM53.0055 11.578C53.0055 11.0833 52.9122 10.7147 52.7255 10.472C52.5482 10.22 52.3009 10.094 51.9835 10.094C51.6662 10.094 51.4189 10.22 51.2415 10.472C51.0642 10.7147 50.9755 11.0833 50.9755 11.578C50.9755 12.0727 51.0642 12.446 51.2415 12.698C51.4189 12.9407 51.6662 13.062 51.9835 13.062C52.3009 13.062 52.5482 12.9407 52.7255 12.698C52.9122 12.446 53.0055 12.0727 53.0055 11.578Z" fill="#059669"/>
</g>
<defs>
<clipPath id="clip0_2559_627">
<rect width="55" height="18" fill="white"/>
</clipPath>
<clipPath id="clip1_2559_627">
<rect width="12" height="12" fill="white" transform="translate(0 3)"/>
</clipPath>
</defs>
</svg>
