<svg width="16" height="16" viewBox="0 0 16 16" fill="none" xmlns="http://www.w3.org/2000/svg">
<path d="M13.6342 6.04592C13.6048 4.68931 12.9964 3.39826 11.9414 2.45344C10.8863 1.50861 9.4699 0.986376 8 1.00027C6.5301 0.986376 5.11367 1.50861 4.05862 2.45344C3.00358 3.39826 2.39522 4.68931 2.36578 6.04592C1.95939 6.21685 1.61469 6.49185 1.37259 6.83825C1.13049 7.18465 1.00118 7.58791 1 8.00014V9.43601C1 10.0072 1.24583 10.5551 1.68342 10.959C2.121 11.3629 2.71449 11.5898 3.33333 11.5898C3.95217 11.5898 4.54566 11.3629 4.98325 10.959C5.42083 10.5551 5.66667 10.0072 5.66667 9.43601V8.00014C5.66542 7.58958 5.53707 7.18791 5.29675 6.84244C5.05643 6.49698 4.71414 6.22211 4.31022 6.05022C4.33792 5.16878 4.7407 4.33289 5.43132 3.72362C6.12195 3.11436 7.04481 2.78076 8 2.79511C8.95519 2.78076 9.87805 3.11436 10.5687 3.72362C11.2593 4.33289 11.6621 5.16878 11.6898 6.05022C11.2859 6.22211 10.9436 6.49698 10.7033 6.84244C10.4629 7.18791 10.3346 7.58958 10.3333 8.00014V9.43601C10.3347 9.84727 10.4636 10.2496 10.7048 10.5954C10.946 10.9412 11.2894 11.216 11.6944 11.3874V11.8928C11.7003 12.2328 11.5607 12.5613 11.3059 12.807C11.0511 13.0527 10.7017 13.1958 10.3333 13.2052H8C7.74215 13.2052 7.49486 13.2997 7.31254 13.468C7.13021 13.6363 7.02778 13.8646 7.02778 14.1026C7.02778 14.3406 7.13021 14.5689 7.31254 14.7372C7.49486 14.9055 7.74215 15 8 15H10.3333C11.2178 14.9917 12.0625 14.6598 12.6822 14.0773C13.3019 13.4948 13.6459 12.7092 13.6389 11.8928V11.3874C14.0439 11.216 14.3873 10.9412 14.6285 10.5954C14.8697 10.2496 14.9986 9.84727 15 9.43601V8.00014C14.9988 7.58791 14.8695 7.18465 14.6274 6.83825C14.3853 6.49185 14.0406 6.21685 13.6342 6.04592Z" fill="#797E82"/>
</svg>
