<svg width="33" height="22" viewBox="0 0 33 22" fill="none" xmlns="http://www.w3.org/2000/svg">
<rect width="33" height="22" rx="11" fill="#F3F3F7"/>
<path d="M7.9335 6.684H9.4455V15H7.9335V6.684ZM17.0414 15C16.7694 14.544 16.4654 14.056 16.1294 13.536C15.7934 13.008 15.4454 12.48 15.0854 11.952C14.7254 11.416 14.3574 10.9 13.9814 10.404C13.6134 9.9 13.2614 9.448 12.9254 9.048V15H11.4374V6.684H12.6734C12.9934 7.02 13.3374 7.42 13.7054 7.884C14.0734 8.34 14.4414 8.816 14.8094 9.312C15.1854 9.808 15.5454 10.308 15.8894 10.812C16.2414 11.308 16.5534 11.772 16.8254 12.204V6.684H18.3254V15H17.0414ZM22.6122 6.6C23.8122 6.6 24.7282 6.82 25.3602 7.26C26.0002 7.7 26.3202 8.372 26.3202 9.276C26.3202 10.404 25.7642 11.168 24.6522 11.568C24.8042 11.752 24.9762 11.976 25.1682 12.24C25.3602 12.504 25.5562 12.792 25.7562 13.104C25.9562 13.408 26.1482 13.724 26.3322 14.052C26.5162 14.372 26.6802 14.688 26.8242 15H25.1322C24.9802 14.712 24.8162 14.424 24.6402 14.136C24.4642 13.84 24.2842 13.556 24.1002 13.284C23.9242 13.004 23.7482 12.744 23.5722 12.504C23.3962 12.256 23.2322 12.036 23.0802 11.844C22.9682 11.852 22.8722 11.856 22.7922 11.856C22.7122 11.856 22.6362 11.856 22.5642 11.856H21.8322V15H20.3202V6.804C20.6882 6.724 21.0802 6.672 21.4962 6.648C21.9122 6.616 22.2842 6.6 22.6122 6.6ZM22.7202 7.908C22.4002 7.908 22.1042 7.92 21.8322 7.944V10.632H22.4922C22.8602 10.632 23.1842 10.612 23.4642 10.572C23.7442 10.532 23.9762 10.46 24.1602 10.356C24.3522 10.252 24.4962 10.112 24.5922 9.936C24.6882 9.76 24.7362 9.536 24.7362 9.264C24.7362 9.008 24.6882 8.792 24.5922 8.616C24.4962 8.44 24.3562 8.3 24.1722 8.196C23.9962 8.092 23.7842 8.02 23.5362 7.98C23.2882 7.932 23.0162 7.908 22.7202 7.908Z" fill="#797E82"/>
</svg>
