<svg width="180" height="19" viewBox="0 0 180 19" fill="none" xmlns="http://www.w3.org/2000/svg">
<path d="M13 14.3C12.6 14.3 12.2333 14.2467 11.9 14.14C11.5667 14.02 11.2867 13.84 11.06 13.6C10.7667 13.8133 10.42 13.9733 10.02 14.08C9.63333 14.1867 9.22667 14.24 8.8 14.24C8.14667 14.24 7.54667 14.14 7 13.94C6.46667 13.74 6 13.44 5.6 13.04C5.21333 12.64 4.91333 12.1467 4.7 11.56C4.48667 10.96 4.38 10.2667 4.38 9.48C4.38 8.82667 4.48667 8.21333 4.7 7.64C4.91333 7.05333 5.22 6.54667 5.62 6.12C6.03333 5.69333 6.53333 5.36 7.12 5.12C7.72 4.86667 8.4 4.74 9.16 4.74C9.89333 4.74 10.5533 4.8 11.14 4.92C11.7267 5.04 12.1933 5.16667 12.54 5.3V11.5C12.54 11.8733 12.6067 12.1333 12.74 12.28C12.8867 12.4133 13.08 12.48 13.32 12.48C13.8933 12.48 14.34 12.1267 14.66 11.42C14.9933 10.7 15.16 9.67333 15.16 8.34C15.16 7.51333 15.0133 6.74667 14.72 6.04C14.44 5.32 14.0267 4.7 13.48 4.18C12.9333 3.66 12.2667 3.25333 11.48 2.96C10.7067 2.65333 9.83333 2.5 8.86 2.5C7.9 2.5 7.01333 2.66 6.2 2.98C5.4 3.3 4.70667 3.76 4.12 4.36C3.54667 4.96 3.09333 5.69333 2.76 6.56C2.44 7.42667 2.28 8.40667 2.28 9.5C2.28 10.6467 2.44667 11.6533 2.78 12.52C3.11333 13.3733 3.58 14.0867 4.18 14.66C4.79333 15.2333 5.52 15.6667 6.36 15.96C7.21333 16.2533 8.16 16.4 9.2 16.4C9.92 16.4 10.5533 16.3533 11.1 16.26C11.66 16.18 12.08 16.1067 12.36 16.04L12.6 17.72C12.4533 17.76 12.26 17.8067 12.02 17.86C11.7933 17.9133 11.5267 17.96 11.22 18C10.9267 18.0533 10.6067 18.0933 10.26 18.12C9.91333 18.16 9.56 18.18 9.2 18.18C7.96 18.18 6.79333 18.0133 5.7 17.68C4.62 17.3467 3.67333 16.8267 2.86 16.12C2.06 15.4133 1.42 14.5133 0.94 13.42C0.473333 12.3267 0.24 11.02 0.24 9.5C0.24 8.04667 0.48 6.77333 0.96 5.68C1.44 4.57333 2.08 3.66 2.88 2.94C3.68 2.20667 4.59333 1.66 5.62 1.3C6.66 0.926665 7.74 0.739999 8.86 0.739999C10.02 0.739999 11.1067 0.913332 12.12 1.26C13.1333 1.60667 14.0133 2.11333 14.76 2.78C15.5067 3.43333 16.0933 4.24 16.52 5.2C16.96 6.16 17.18 7.25333 17.18 8.48C17.18 9.42667 17.0733 10.26 16.86 10.98C16.66 11.7 16.3733 12.3067 16 12.8C15.6267 13.2933 15.1867 13.6667 14.68 13.92C14.1733 14.1733 13.6133 14.3 13 14.3ZM10.42 12.12C10.3933 11.9733 10.3667 11.8067 10.34 11.62C10.3267 11.4333 10.32 11.2533 10.32 11.08V6.68C10.0533 6.61333 9.70667 6.58 9.28 6.58C8.82667 6.58 8.43333 6.65333 8.1 6.8C7.78 6.94667 7.51333 7.15333 7.3 7.42C7.08667 7.67333 6.92667 7.98 6.82 8.34C6.72667 8.68667 6.68 9.06667 6.68 9.48C6.68 10.32 6.86 11.0133 7.22 11.56C7.58 12.1067 8.14 12.38 8.9 12.38C9.14 12.38 9.38667 12.3667 9.64 12.34C9.90667 12.3 10.1667 12.2267 10.42 12.12ZM22.5941 12.92C22.7407 12.9333 22.9341 12.9467 23.1741 12.96C23.4141 12.96 23.7407 12.96 24.1541 12.96C25.8474 12.96 27.1074 12.5333 27.9341 11.68C28.7741 10.8133 29.1941 9.60667 29.1941 8.06C29.1941 6.48667 28.7874 5.28 27.9741 4.44C27.1607 3.6 25.9007 3.18 24.1941 3.18C23.4474 3.18 22.9141 3.2 22.5941 3.24V12.92ZM31.8341 8.06C31.8341 9.26 31.6474 10.3067 31.2741 11.2C30.9007 12.08 30.3674 12.82 29.6741 13.42C28.9941 14.0067 28.1674 14.4467 27.1941 14.74C26.2341 15.02 25.1674 15.16 23.9941 15.16C23.4341 15.16 22.8007 15.1333 22.0941 15.08C21.3874 15.04 20.7141 14.9467 20.0741 14.8V1.34C20.7141 1.19333 21.3941 1.1 22.1141 1.06C22.8341 1.02 23.4741 0.999999 24.0341 0.999999C25.1941 0.999999 26.2541 1.14 27.2141 1.42C28.1741 1.68667 28.9941 2.11333 29.6741 2.7C30.3674 3.27333 30.9007 4.00667 31.2741 4.9C31.6474 5.78 31.8341 6.83333 31.8341 8.06ZM36.6458 8.06C36.6458 8.82 36.7391 9.51333 36.9258 10.14C37.1124 10.7533 37.3791 11.28 37.7258 11.72C38.0858 12.1467 38.5191 12.48 39.0258 12.72C39.5324 12.96 40.1058 13.08 40.7458 13.08C41.3724 13.08 41.9391 12.96 42.4458 12.72C42.9524 12.48 43.3791 12.1467 43.7258 11.72C44.0858 11.28 44.3591 10.7533 44.5458 10.14C44.7324 9.51333 44.8258 8.82 44.8258 8.06C44.8258 7.3 44.7324 6.61333 44.5458 6C44.3591 5.37333 44.0858 4.84667 43.7258 4.42C43.3791 3.98 42.9524 3.64 42.4458 3.4C41.9391 3.16 41.3724 3.04 40.7458 3.04C40.1058 3.04 39.5324 3.16 39.0258 3.4C38.5191 3.64 38.0858 3.98 37.7258 4.42C37.3791 4.86 37.1124 5.38667 36.9258 6C36.7391 6.61333 36.6458 7.3 36.6458 8.06ZM47.4658 8.06C47.4658 9.24667 47.2858 10.2933 46.9258 11.2C46.5791 12.1067 46.0991 12.8667 45.4858 13.48C44.8858 14.08 44.1791 14.5333 43.3658 14.84C42.5524 15.1467 41.6858 15.3 40.7658 15.3C39.8458 15.3 38.9724 15.1467 38.1458 14.84C37.3324 14.5333 36.6191 14.08 36.0058 13.48C35.4058 12.8667 34.9258 12.1067 34.5658 11.2C34.2058 10.2933 34.0258 9.24667 34.0258 8.06C34.0258 6.87333 34.2058 5.83333 34.5658 4.94C34.9258 4.03333 35.4124 3.27333 36.0258 2.66C36.6524 2.04667 37.3724 1.58667 38.1858 1.28C38.9991 0.973332 39.8591 0.819999 40.7658 0.819999C41.6724 0.819999 42.5324 0.973332 43.3458 1.28C44.1591 1.58667 44.8658 2.04667 45.4658 2.66C46.0791 3.27333 46.5658 4.03333 46.9258 4.94C47.2858 5.83333 47.4658 6.87333 47.4658 8.06ZM53.4145 13.12C54.3212 13.12 54.9812 12.9667 55.3945 12.66C55.8079 12.3533 56.0145 11.92 56.0145 11.36C56.0145 11.0267 55.9412 10.74 55.7945 10.5C55.6612 10.26 55.4612 10.0467 55.1945 9.86C54.9412 9.66 54.6279 9.48 54.2545 9.32C53.8812 9.14667 53.4545 8.98 52.9745 8.82C52.4945 8.64667 52.0279 8.46 51.5745 8.26C51.1345 8.04667 50.7412 7.78667 50.3945 7.48C50.0612 7.17333 49.7879 6.80667 49.5745 6.38C49.3745 5.95333 49.2745 5.44 49.2745 4.84C49.2745 3.58667 49.7079 2.60667 50.5745 1.9C51.4412 1.18 52.6212 0.819999 54.1145 0.819999C54.9812 0.819999 55.7479 0.919999 56.4145 1.12C57.0945 1.30667 57.6279 1.51333 58.0145 1.74L57.2345 3.78C56.7812 3.52667 56.2812 3.33333 55.7345 3.2C55.2012 3.06667 54.6479 3 54.0745 3C53.3945 3 52.8612 3.14 52.4745 3.42C52.1012 3.7 51.9145 4.09333 51.9145 4.6C51.9145 4.90667 51.9745 5.17333 52.0945 5.4C52.2279 5.61333 52.4079 5.80667 52.6345 5.98C52.8745 6.15333 53.1479 6.31333 53.4545 6.46C53.7745 6.60667 54.1212 6.74667 54.4945 6.88C55.1479 7.12 55.7279 7.36667 56.2345 7.62C56.7545 7.86 57.1879 8.15333 57.5345 8.5C57.8945 8.83333 58.1679 9.23333 58.3545 9.7C58.5412 10.1533 58.6345 10.7067 58.6345 11.36C58.6345 12.6133 58.1879 13.5867 57.2945 14.28C56.4145 14.96 55.1212 15.3 53.4145 15.3C52.8412 15.3 52.3145 15.26 51.8345 15.18C51.3679 15.1133 50.9479 15.0267 50.5745 14.92C50.2145 14.8133 49.9012 14.7067 49.6345 14.6C49.3679 14.48 49.1545 14.3733 48.9945 14.28L49.7345 12.22C50.0945 12.42 50.5812 12.62 51.1945 12.82C51.8079 13.02 52.5479 13.12 53.4145 13.12ZM62.9153 8.06C62.9153 8.82 63.0086 9.51333 63.1953 10.14C63.382 10.7533 63.6486 11.28 63.9953 11.72C64.3553 12.1467 64.7886 12.48 65.2953 12.72C65.802 12.96 66.3753 13.08 67.0153 13.08C67.642 13.08 68.2086 12.96 68.7153 12.72C69.222 12.48 69.6486 12.1467 69.9953 11.72C70.3553 11.28 70.6286 10.7533 70.8153 10.14C71.002 9.51333 71.0953 8.82 71.0953 8.06C71.0953 7.3 71.002 6.61333 70.8153 6C70.6286 5.37333 70.3553 4.84667 69.9953 4.42C69.6486 3.98 69.222 3.64 68.7153 3.4C68.2086 3.16 67.642 3.04 67.0153 3.04C66.3753 3.04 65.802 3.16 65.2953 3.4C64.7886 3.64 64.3553 3.98 63.9953 4.42C63.6486 4.86 63.382 5.38667 63.1953 6C63.0086 6.61333 62.9153 7.3 62.9153 8.06ZM73.7353 8.06C73.7353 9.24667 73.5553 10.2933 73.1953 11.2C72.8486 12.1067 72.3686 12.8667 71.7553 13.48C71.1553 14.08 70.4486 14.5333 69.6353 14.84C68.822 15.1467 67.9553 15.3 67.0353 15.3C66.1153 15.3 65.242 15.1467 64.4153 14.84C63.602 14.5333 62.8886 14.08 62.2753 13.48C61.6753 12.8667 61.1953 12.1067 60.8353 11.2C60.4753 10.2933 60.2953 9.24667 60.2953 8.06C60.2953 6.87333 60.4753 5.83333 60.8353 4.94C61.1953 4.03333 61.682 3.27333 62.2953 2.66C62.922 2.04667 63.642 1.58667 64.4553 1.28C65.2686 0.973332 66.1286 0.819999 67.0353 0.819999C67.942 0.819999 68.802 0.973332 69.6153 1.28C70.4286 1.58667 71.1353 2.04667 71.7353 2.66C72.3486 3.27333 72.8353 4.03333 73.1953 4.94C73.5553 5.83333 73.7353 6.87333 73.7353 8.06ZM79.5198 1.14C79.8132 1.64667 80.1398 2.26667 80.4998 3C80.8598 3.73333 81.2265 4.50667 81.5998 5.32C81.9732 6.12 82.3398 6.94 82.6998 7.78C83.0732 8.60667 83.4132 9.37333 83.7198 10.08C84.0265 9.37333 84.3598 8.60667 84.7198 7.78C85.0798 6.94 85.4465 6.12 85.8198 5.32C86.1932 4.50667 86.5598 3.73333 86.9198 3C87.2798 2.26667 87.6065 1.64667 87.8998 1.14H90.1798C90.2998 2.15333 90.4132 3.23333 90.5198 4.38C90.6265 5.51333 90.7198 6.68 90.7998 7.88C90.8932 9.06667 90.9732 10.2667 91.0398 11.48C91.1198 12.68 91.1865 13.8533 91.2398 15H88.7598C88.7065 13.3867 88.6398 11.7267 88.5598 10.02C88.4932 8.31333 88.3865 6.66 88.2398 5.06C88.0932 5.36667 87.9198 5.73333 87.7198 6.16C87.5198 6.58667 87.3065 7.05333 87.0798 7.56C86.8532 8.05333 86.6198 8.56667 86.3798 9.1C86.1532 9.63333 85.9265 10.1533 85.6998 10.66C85.4865 11.1533 85.2865 11.62 85.0998 12.06C84.9132 12.4867 84.7532 12.8533 84.6198 13.16H82.7398C82.6065 12.8533 82.4465 12.48 82.2598 12.04C82.0732 11.6 81.8665 11.1333 81.6398 10.64C81.4265 10.1333 81.1998 9.61333 80.9598 9.08C80.7332 8.54667 80.5065 8.03333 80.2798 7.54C80.0532 7.04667 79.8398 6.58667 79.6398 6.16C79.4398 5.72 79.2665 5.35333 79.1198 5.06C78.9732 6.66 78.8598 8.31333 78.7798 10.02C78.7132 11.7267 78.6532 13.3867 78.5998 15H76.1198C76.1732 13.8533 76.2332 12.6667 76.2998 11.44C76.3798 10.2133 76.4598 9 76.5398 7.8C76.6332 6.58667 76.7332 5.41333 76.8398 4.28C76.9465 3.14667 77.0598 2.1 77.1798 1.14H79.5198ZM94.1756 15V1.14H103.076V3.28H96.6956V6.7H102.376V8.8H96.6956V12.86H103.556V15H94.1756ZM111.547 15.3C110.507 15.3 109.573 15.14 108.747 14.82C107.92 14.5 107.22 14.0333 106.647 13.42C106.073 12.7933 105.633 12.0333 105.327 11.14C105.02 10.2467 104.867 9.22 104.867 8.06C104.867 6.9 105.04 5.87333 105.387 4.98C105.747 4.08667 106.233 3.33333 106.847 2.72C107.46 2.09333 108.18 1.62 109.007 1.3C109.833 0.979999 110.72 0.819999 111.667 0.819999C112.24 0.819999 112.76 0.866666 113.227 0.96C113.693 1.04 114.1 1.13333 114.447 1.24C114.793 1.34667 115.08 1.46 115.307 1.58C115.533 1.7 115.693 1.78667 115.787 1.84L115.047 3.9C114.727 3.7 114.267 3.51333 113.667 3.34C113.08 3.15333 112.44 3.06 111.747 3.06C111.147 3.06 110.587 3.16667 110.067 3.38C109.547 3.58 109.093 3.88667 108.707 4.3C108.333 4.71333 108.04 5.23333 107.827 5.86C107.613 6.48667 107.507 7.21333 107.507 8.04C107.507 8.77333 107.587 9.44667 107.747 10.06C107.92 10.6733 108.18 11.2067 108.527 11.66C108.873 12.1 109.313 12.4467 109.847 12.7C110.38 12.94 111.02 13.06 111.767 13.06C112.66 13.06 113.387 12.9733 113.947 12.8C114.507 12.6133 114.94 12.44 115.247 12.28L115.927 14.34C115.767 14.4467 115.547 14.5533 115.267 14.66C115 14.7667 114.68 14.8733 114.307 14.98C113.933 15.0733 113.513 15.1467 113.047 15.2C112.58 15.2667 112.08 15.3 111.547 15.3ZM119.849 8.06C119.849 8.82 119.942 9.51333 120.129 10.14C120.316 10.7533 120.582 11.28 120.929 11.72C121.289 12.1467 121.722 12.48 122.229 12.72C122.736 12.96 123.309 13.08 123.949 13.08C124.576 13.08 125.142 12.96 125.649 12.72C126.156 12.48 126.582 12.1467 126.929 11.72C127.289 11.28 127.562 10.7533 127.749 10.14C127.936 9.51333 128.029 8.82 128.029 8.06C128.029 7.3 127.936 6.61333 127.749 6C127.562 5.37333 127.289 4.84667 126.929 4.42C126.582 3.98 126.156 3.64 125.649 3.4C125.142 3.16 124.576 3.04 123.949 3.04C123.309 3.04 122.736 3.16 122.229 3.4C121.722 3.64 121.289 3.98 120.929 4.42C120.582 4.86 120.316 5.38667 120.129 6C119.942 6.61333 119.849 7.3 119.849 8.06ZM130.669 8.06C130.669 9.24667 130.489 10.2933 130.129 11.2C129.782 12.1067 129.302 12.8667 128.689 13.48C128.089 14.08 127.382 14.5333 126.569 14.84C125.756 15.1467 124.889 15.3 123.969 15.3C123.049 15.3 122.176 15.1467 121.349 14.84C120.536 14.5333 119.822 14.08 119.209 13.48C118.609 12.8667 118.129 12.1067 117.769 11.2C117.409 10.2933 117.229 9.24667 117.229 8.06C117.229 6.87333 117.409 5.83333 117.769 4.94C118.129 4.03333 118.616 3.27333 119.229 2.66C119.856 2.04667 120.576 1.58667 121.389 1.28C122.202 0.973332 123.062 0.819999 123.969 0.819999C124.876 0.819999 125.736 0.973332 126.549 1.28C127.362 1.58667 128.069 2.04667 128.669 2.66C129.282 3.27333 129.769 4.03333 130.129 4.94C130.489 5.83333 130.669 6.87333 130.669 8.06ZM135.953 12.92C136.1 12.9333 136.293 12.9467 136.533 12.96C136.773 12.96 137.1 12.96 137.513 12.96C139.207 12.96 140.467 12.5333 141.293 11.68C142.133 10.8133 142.553 9.60667 142.553 8.06C142.553 6.48667 142.147 5.28 141.333 4.44C140.52 3.6 139.26 3.18 137.553 3.18C136.807 3.18 136.273 3.2 135.953 3.24V12.92ZM145.193 8.06C145.193 9.26 145.007 10.3067 144.633 11.2C144.26 12.08 143.727 12.82 143.033 13.42C142.353 14.0067 141.527 14.4467 140.553 14.74C139.593 15.02 138.527 15.16 137.353 15.16C136.793 15.16 136.16 15.1333 135.453 15.08C134.747 15.04 134.073 14.9467 133.433 14.8V1.34C134.073 1.19333 134.753 1.1 135.473 1.06C136.193 1.02 136.833 0.999999 137.393 0.999999C138.553 0.999999 139.613 1.14 140.573 1.42C141.533 1.68667 142.353 2.11333 143.033 2.7C143.727 3.27333 144.26 4.00667 144.633 4.9C145.007 5.78 145.193 6.83333 145.193 8.06ZM147.945 1.14H150.465V15H147.945V1.14ZM163.125 15C162.672 14.24 162.165 13.4267 161.605 12.56C161.045 11.68 160.465 10.8 159.865 9.92C159.265 9.02667 158.652 8.16667 158.025 7.34C157.412 6.5 156.825 5.74667 156.265 5.08V15H153.785V1.14H155.845C156.378 1.7 156.952 2.36667 157.565 3.14C158.178 3.9 158.792 4.69333 159.405 5.52C160.032 6.34667 160.632 7.18 161.205 8.02C161.792 8.84667 162.312 9.62 162.765 10.34V1.14H165.265V15H163.125ZM175.07 3.04C173.643 3.04 172.55 3.48667 171.79 4.38C171.043 5.26 170.67 6.48667 170.67 8.06C170.67 8.80667 170.756 9.49333 170.93 10.12C171.116 10.7333 171.383 11.26 171.73 11.7C172.09 12.14 172.53 12.4867 173.05 12.74C173.583 12.98 174.203 13.1 174.91 13.1C175.35 13.1 175.73 13.0867 176.05 13.06C176.37 13.02 176.623 12.9733 176.81 12.92V7.94H179.33V14.6C178.983 14.7333 178.396 14.88 177.57 15.04C176.743 15.2 175.79 15.28 174.71 15.28C173.71 15.28 172.796 15.12 171.97 14.8C171.143 14.48 170.436 14.0133 169.85 13.4C169.276 12.7867 168.83 12.0333 168.51 11.14C168.19 10.2467 168.03 9.22 168.03 8.06C168.03 6.9 168.203 5.87333 168.55 4.98C168.91 4.08667 169.396 3.33333 170.01 2.72C170.623 2.09333 171.343 1.62 172.17 1.3C172.996 0.979999 173.876 0.819999 174.81 0.819999C175.45 0.819999 176.016 0.866666 176.51 0.96C177.016 1.04 177.45 1.13333 177.81 1.24C178.17 1.34667 178.463 1.46 178.69 1.58C178.93 1.7 179.096 1.78667 179.19 1.84L178.43 3.9C178.03 3.66 177.53 3.46 176.93 3.3C176.343 3.12667 175.723 3.04 175.07 3.04Z" fill="#5F00D9"/>
</svg>
