<svg width="50" height="50" viewBox="0 0 50 50" fill="none" xmlns="http://www.w3.org/2000/svg">
<circle cx="25" cy="25" r="24.5" fill="white" stroke="black"/>
<path d="M25 15.5C26.2074 15.4996 27.3823 15.8968 28.3418 16.6299C29.3009 17.3628 29.9926 18.3909 30.3096 19.5557C30.6265 20.7206 30.5514 21.9582 30.0957 23.0762C29.6399 24.1943 28.8283 25.1318 27.7871 25.7432L26.7998 26.3223L27.8965 26.6523C31.4049 27.7084 34.0283 30.661 34.499 34.3154C34.508 34.3851 34.4565 34.4848 34.3271 34.5C34.1949 34.5155 34.1111 34.4256 34.1016 34.3516C33.5282 29.9029 29.6781 26.5703 25.0352 26.5703C20.3723 26.5704 16.4722 29.905 15.8994 34.3516C15.8899 34.4256 15.806 34.5154 15.6738 34.5C15.5449 34.4849 15.4926 34.3861 15.501 34.3164C15.9702 30.6798 18.6074 27.7287 22.125 26.6621L23.2236 26.3301L22.2324 25.752C21.1882 25.1434 20.3733 24.2078 19.9141 23.0898C19.4549 21.9718 19.3764 20.7333 19.6914 19.5664C20.0065 18.3994 20.6976 17.3688 21.6572 16.6338C22.6167 15.8989 23.7914 15.5003 25 15.5ZM24.9932 16.0732C23.6673 16.0733 22.3956 16.5996 21.458 17.5371C20.5203 18.4748 19.9932 19.7472 19.9932 21.0732C19.9932 22.3992 20.5204 23.6708 21.458 24.6084C22.3957 25.546 23.6672 26.0732 24.9932 26.0732C25.6496 26.0732 26.2997 25.9436 26.9062 25.6924C27.5128 25.4411 28.0641 25.0726 28.5283 24.6084C28.9926 24.1441 29.361 23.5929 29.6123 22.9863C29.8635 22.3798 29.9931 21.7298 29.9932 21.0732C29.9932 20.4166 29.8636 19.7658 29.6123 19.1592C29.361 18.5527 28.9925 18.0013 28.5283 17.5371C28.0641 17.073 27.5127 16.7043 26.9062 16.4531C26.2998 16.202 25.6496 16.0732 24.9932 16.0732Z" fill="black" stroke="black"/>
</svg>
