<svg width="147" height="27" viewBox="0 0 147 27" fill="none" xmlns="http://www.w3.org/2000/svg">
<g clip-path="url(#clip0_2559_613)">
<rect width="147" height="27" rx="6" fill="#F3F3F7"/>
<path d="M10.08 11.412C10.544 11.228 11.008 10.992 11.472 10.704C11.944 10.416 12.36 10.076 12.72 9.684H13.74V18H12.288V11.628C12.072 11.796 11.8 11.96 11.472 12.12C11.144 12.28 10.828 12.412 10.524 12.516L10.08 11.412ZM21.9403 9.684H23.4523V18H21.9403V14.316H18.3283V18H16.8163V9.684H18.3283V13.008H21.9403V9.684Z" fill="#797E82"/>
<g filter="url(#filter0_d_2559_613)">
<rect x="39" y="3" width="28" height="21" rx="4" fill="white"/>
<path d="M46.08 11.412C46.544 11.228 47.008 10.992 47.472 10.704C47.944 10.416 48.36 10.076 48.72 9.684H49.74V18H48.288V11.628C48.072 11.796 47.8 11.96 47.472 12.12C47.144 12.28 46.828 12.412 46.524 12.516L46.08 11.412ZM54.3283 16.752C54.4163 16.76 54.5323 16.768 54.6763 16.776C54.8203 16.776 55.0163 16.776 55.2643 16.776C56.2803 16.776 57.0363 16.52 57.5323 16.008C58.0363 15.488 58.2883 14.764 58.2883 13.836C58.2883 12.892 58.0443 12.168 57.5563 11.664C57.0683 11.16 56.3123 10.908 55.2883 10.908C54.8403 10.908 54.5203 10.92 54.3283 10.944V16.752ZM59.8723 13.836C59.8723 14.556 59.7603 15.184 59.5363 15.72C59.3123 16.248 58.9923 16.692 58.5763 17.052C58.1683 17.404 57.6723 17.668 57.0883 17.844C56.5123 18.012 55.8723 18.096 55.1683 18.096C54.8323 18.096 54.4523 18.08 54.0283 18.048C53.6043 18.024 53.2003 17.968 52.8163 17.88V9.804C53.2003 9.716 53.6083 9.66 54.0403 9.636C54.4723 9.612 54.8563 9.6 55.1923 9.6C55.8883 9.6 56.5243 9.684 57.1003 9.852C57.6763 10.012 58.1683 10.268 58.5763 10.62C58.9923 10.964 59.3123 11.404 59.5363 11.94C59.7603 12.468 59.8723 13.1 59.8723 13.836Z" fill="#171717"/>
</g>
<path d="M82.08 11.412C82.544 11.228 83.008 10.992 83.472 10.704C83.944 10.416 84.36 10.076 84.72 9.684H85.74V18H84.288V11.628C84.072 11.796 83.8 11.96 83.472 12.12C83.144 12.28 82.828 12.412 82.524 12.516L82.08 11.412ZM94.1443 10.62C94.2723 11.052 94.4083 11.504 94.5523 11.976C94.6963 12.44 94.8443 12.908 94.9963 13.38C95.1563 13.844 95.3123 14.304 95.4643 14.76C95.6243 15.208 95.7763 15.632 95.9203 16.032C96.0403 15.6 96.1563 15.132 96.2683 14.628C96.3803 14.116 96.4923 13.588 96.6043 13.044C96.7163 12.492 96.8243 11.932 96.9283 11.364C97.0403 10.796 97.1443 10.236 97.2403 9.684H98.8003C98.5203 11.188 98.2083 12.636 97.8643 14.028C97.5203 15.412 97.1363 16.736 96.7123 18H95.2723C94.6483 16.384 94.0443 14.62 93.4603 12.708C93.1643 13.676 92.8643 14.596 92.5603 15.468C92.2563 16.34 91.9523 17.184 91.6483 18H90.2083C89.7763 16.736 89.3883 15.412 89.0443 14.028C88.7083 12.636 88.4003 11.188 88.1203 9.684H89.7403C89.8363 10.228 89.9363 10.784 90.0403 11.352C90.1523 11.92 90.2643 12.48 90.3763 13.032C90.4963 13.576 90.6163 14.104 90.7363 14.616C90.8563 15.128 90.9763 15.6 91.0963 16.032C91.2483 15.624 91.4003 15.196 91.5523 14.748C91.7123 14.292 91.8683 13.832 92.0203 13.368C92.1723 12.896 92.3163 12.428 92.4523 11.964C92.5963 11.5 92.7283 11.052 92.8483 10.62H94.1443Z" fill="#797E82"/>
<path d="M121.08 11.412C121.544 11.228 122.008 10.992 122.472 10.704C122.944 10.416 123.36 10.076 123.72 9.684H124.74V18H123.288V11.628C123.072 11.796 122.8 11.96 122.472 12.12C122.144 12.28 121.828 12.412 121.524 12.516L121.08 11.412ZM129.628 9.684C129.804 9.988 130 10.36 130.216 10.8C130.432 11.24 130.652 11.704 130.876 12.192C131.1 12.672 131.32 13.164 131.536 13.668C131.76 14.164 131.964 14.624 132.148 15.048C132.332 14.624 132.532 14.164 132.748 13.668C132.964 13.164 133.184 12.672 133.408 12.192C133.632 11.704 133.852 11.24 134.068 10.8C134.284 10.36 134.48 9.988 134.656 9.684H136.024C136.096 10.292 136.164 10.94 136.228 11.628C136.292 12.308 136.348 13.008 136.396 13.728C136.452 14.44 136.5 15.16 136.54 15.888C136.588 16.608 136.628 17.312 136.66 18H135.172C135.14 17.032 135.1 16.036 135.052 15.012C135.012 13.988 134.948 12.996 134.86 12.036C134.772 12.22 134.668 12.44 134.548 12.696C134.428 12.952 134.3 13.232 134.164 13.536C134.028 13.832 133.888 14.14 133.744 14.46C133.608 14.78 133.472 15.092 133.336 15.396C133.208 15.692 133.088 15.972 132.976 16.236C132.864 16.492 132.768 16.712 132.688 16.896H131.56C131.48 16.712 131.384 16.488 131.272 16.224C131.16 15.96 131.036 15.68 130.9 15.384C130.772 15.08 130.636 14.768 130.492 14.448C130.356 14.128 130.22 13.82 130.084 13.524C129.948 13.228 129.82 12.952 129.7 12.696C129.58 12.432 129.476 12.212 129.388 12.036C129.3 12.996 129.232 13.988 129.184 15.012C129.144 16.036 129.108 17.032 129.076 18H127.588C127.62 17.312 127.656 16.6 127.696 15.864C127.744 15.128 127.792 14.4 127.84 13.68C127.896 12.952 127.956 12.248 128.02 11.568C128.084 10.888 128.152 10.26 128.224 9.684H129.628Z" fill="#797E82"/>
</g>
<defs>
<filter id="filter0_d_2559_613" x="35" y="3" width="36" height="29" filterUnits="userSpaceOnUse" color-interpolation-filters="sRGB">
<feFlood flood-opacity="0" result="BackgroundImageFix"/>
<feColorMatrix in="SourceAlpha" type="matrix" values="0 0 0 0 0 0 0 0 0 0 0 0 0 0 0 0 0 0 127 0" result="hardAlpha"/>
<feOffset dy="4"/>
<feGaussianBlur stdDeviation="2"/>
<feComposite in2="hardAlpha" operator="out"/>
<feColorMatrix type="matrix" values="0 0 0 0 0.0901961 0 0 0 0 0.0901961 0 0 0 0 0.0901961 0 0 0 0.04 0"/>
<feBlend mode="normal" in2="BackgroundImageFix" result="effect1_dropShadow_2559_613"/>
<feBlend mode="normal" in="SourceGraphic" in2="effect1_dropShadow_2559_613" result="shape"/>
</filter>
<clipPath id="clip0_2559_613">
<rect width="147" height="27" rx="6" fill="white"/>
</clipPath>
</defs>
</svg>
