<svg width="16" height="16" viewBox="0 0 16 16" fill="none" xmlns="http://www.w3.org/2000/svg">
<path d="M8.20438 5.6956C8.26951 5.76056 8.3468 5.81205 8.43184 5.84713C8.51688 5.8822 8.608 5.90017 8.69998 5.9C8.79177 5.90022 8.88267 5.88214 8.96738 5.8468C9.09539 5.79389 9.20483 5.70419 9.28183 5.58905C9.35884 5.47391 9.39996 5.33852 9.39998 5.2V1.7C9.39998 1.51435 9.32623 1.3363 9.19496 1.20503C9.06368 1.07375 8.88563 1 8.69998 1H5.19998C5.06135 0.999753 4.92577 1.04067 4.81043 1.11757C4.69508 1.19447 4.60517 1.30389 4.55208 1.43195C4.499 1.56002 4.48513 1.70096 4.51225 1.83691C4.53936 1.97286 4.60623 2.0977 4.70438 2.1956L5.83698 3.3268L1.43118 7.7312C1.26707 7.89532 1.17487 8.11791 1.17487 8.35C1.17487 8.5821 1.26707 8.80469 1.43118 8.9688C1.5953 9.13292 1.81789 9.22512 2.04998 9.22512C2.28208 9.22512 2.50467 9.13292 2.66878 8.9688L7.07318 4.563L8.20438 5.6956Z" fill="#797E82"/>
<path d="M14.5688 7.03123C14.4875 6.94996 14.3911 6.88549 14.2849 6.8415C14.1787 6.79751 14.0649 6.77487 13.95 6.77487C13.8351 6.77487 13.7213 6.79751 13.6151 6.8415C13.5089 6.88549 13.4124 6.94996 13.3312 7.03123L8.92678 11.437L7.79558 10.3044C7.69768 10.2063 7.57284 10.1394 7.43688 10.1123C7.30093 10.0852 7.15999 10.0991 7.03193 10.1521C6.90387 10.2052 6.79445 10.2951 6.71755 10.4105C6.64065 10.5258 6.59973 10.6614 6.59998 10.8V14.3C6.59998 14.4857 6.67373 14.6637 6.805 14.795C6.93628 14.9263 7.11433 15 7.29998 15H10.8C10.9386 15.0003 11.0742 14.9594 11.1895 14.8825C11.3049 14.8056 11.3948 14.6961 11.4479 14.5681C11.501 14.44 11.5148 14.2991 11.4877 14.1631C11.4606 14.0272 11.3937 13.9023 11.2956 13.8044L10.163 12.6732L14.5688 8.26883C14.6501 8.18758 14.7145 8.09111 14.7585 7.98494C14.8025 7.87876 14.8251 7.76496 14.8251 7.65003C14.8251 7.53511 14.8025 7.42131 14.7585 7.31513C14.7145 7.20896 14.6501 7.11249 14.5688 7.03123Z" fill="#797E82"/>
</svg>
